<svg width="32" height="32" viewBox="0 0 32 32" xmlns="http://www.w3.org/2000/svg">
  <defs>
    <linearGradient id="gs1" x1="0" y1="0" x2="1" y2="1">
      <stop offset="0" stop-color="#1D9E75"/>
      <stop offset="1" stop-color="#0F6E56"/>
    </linearGradient>
  </defs>
  <path d="M16 3.5 L18.2 3.9 L19 6.3 L21.2 6.9 L23 5.2 L25 6.5 L24.5 8.9 L26.4 10.5 L28.8 10.3 L29.5 12.5 L27.6 14.1 L27.6 17.9 L29.5 19.5 L28.8 21.7 L26.4 21.5 L24.5 23.1 L25 25.5 L23 26.8 L21.2 25.1 L19 25.7 L18.2 28.1 L16 28.5 L13.8 28.1 L13 25.7 L10.8 25.1 L9 26.8 L7 25.5 L7.5 23.1 L5.6 21.5 L3.2 21.7 L2.5 19.5 L4.4 17.9 L4.4 14.1 L2.5 12.5 L3.2 10.3 L5.6 10.5 L7.5 8.9 L7 6.5 L9 5.2 L10.8 6.9 L13 6.3 L13.8 3.9 Z" fill="url(#gs1)"/>
  <circle cx="16" cy="16" r="4.5" fill="white"/>
  <circle cx="16" cy="16" r="2" fill="#0F6E56"/>
</svg>
